<mxfile host="app.diagrams.net" modified="2021-04-03T18:18:12.540Z" agent="5.0 (Windows NT 10.0; Win64; x64) AppleWebKit/537.36 (KHTML, like Gecko) Chrome/89.0.4389.90 Safari/537.36 Edg/89.0.774.63" etag="Z7FK_N5m8oXLtgr9qZv-" version="14.5.6" type="github">
  <diagram id="XSy3SNoMvduB6K7PyyDJ" name="Page-1">
    <mxGraphModel dx="813" dy="454" grid="1" gridSize="10" guides="1" tooltips="1" connect="1" arrows="1" fold="1" page="1" pageScale="1" pageWidth="850" pageHeight="1100" math="0" shadow="0">
      <root>
        <mxCell id="0" />
        <mxCell id="1" parent="0" />
        <mxCell id="dv0m6-zfDkGKopQuFqEQ-2" value="Regular Staff" style="rounded=0;whiteSpace=wrap;html=1;" vertex="1" parent="1">
          <mxGeometry x="40" y="40" width="110" height="40" as="geometry" />
        </mxCell>
        <mxCell id="dv0m6-zfDkGKopQuFqEQ-3" value="" style="endArrow=none;dashed=1;html=1;" edge="1" parent="1" source="dv0m6-zfDkGKopQuFqEQ-17">
          <mxGeometry width="50" height="50" relative="1" as="geometry">
            <mxPoint x="90" y="600" as="sourcePoint" />
            <mxPoint x="90" y="90" as="targetPoint" />
          </mxGeometry>
        </mxCell>
        <mxCell id="dv0m6-zfDkGKopQuFqEQ-4" value="Online Training&lt;br&gt;Portal" style="rounded=0;whiteSpace=wrap;html=1;" vertex="1" parent="1">
          <mxGeometry x="410" y="40" width="110" height="40" as="geometry" />
        </mxCell>
        <mxCell id="dv0m6-zfDkGKopQuFqEQ-5" value="Head of Department" style="rounded=0;whiteSpace=wrap;html=1;" vertex="1" parent="1">
          <mxGeometry x="230" y="40" width="110" height="40" as="geometry" />
        </mxCell>
        <mxCell id="dv0m6-zfDkGKopQuFqEQ-6" value="HR Manager" style="rounded=0;whiteSpace=wrap;html=1;" vertex="1" parent="1">
          <mxGeometry x="780" y="40" width="110" height="40" as="geometry" />
        </mxCell>
        <mxCell id="dv0m6-zfDkGKopQuFqEQ-7" value="Director of HR" style="rounded=0;whiteSpace=wrap;html=1;" vertex="1" parent="1">
          <mxGeometry x="960" y="40" width="110" height="40" as="geometry" />
        </mxCell>
        <mxCell id="dv0m6-zfDkGKopQuFqEQ-8" value="CEO" style="rounded=0;whiteSpace=wrap;html=1;" vertex="1" parent="1">
          <mxGeometry x="1120" y="40" width="110" height="40" as="geometry" />
        </mxCell>
        <mxCell id="dv0m6-zfDkGKopQuFqEQ-9" value="Division Head" style="rounded=0;whiteSpace=wrap;html=1;" vertex="1" parent="1">
          <mxGeometry x="600" y="40" width="110" height="40" as="geometry" />
        </mxCell>
        <mxCell id="dv0m6-zfDkGKopQuFqEQ-10" value="" style="endArrow=none;dashed=1;html=1;" edge="1" parent="1" source="dv0m6-zfDkGKopQuFqEQ-47">
          <mxGeometry width="50" height="50" relative="1" as="geometry">
            <mxPoint x="280" y="600" as="sourcePoint" />
            <mxPoint x="280" y="90" as="targetPoint" />
          </mxGeometry>
        </mxCell>
        <mxCell id="dv0m6-zfDkGKopQuFqEQ-11" value="" style="endArrow=none;dashed=1;html=1;" edge="1" parent="1" source="dv0m6-zfDkGKopQuFqEQ-23">
          <mxGeometry width="50" height="50" relative="1" as="geometry">
            <mxPoint x="464.5" y="600" as="sourcePoint" />
            <mxPoint x="464.5" y="90" as="targetPoint" />
          </mxGeometry>
        </mxCell>
        <mxCell id="dv0m6-zfDkGKopQuFqEQ-12" value="" style="endArrow=none;dashed=1;html=1;" edge="1" parent="1">
          <mxGeometry width="50" height="50" relative="1" as="geometry">
            <mxPoint x="655" y="230" as="sourcePoint" />
            <mxPoint x="654.5" y="90" as="targetPoint" />
          </mxGeometry>
        </mxCell>
        <mxCell id="dv0m6-zfDkGKopQuFqEQ-13" value="" style="endArrow=none;dashed=1;html=1;" edge="1" parent="1" source="dv0m6-zfDkGKopQuFqEQ-52">
          <mxGeometry width="50" height="50" relative="1" as="geometry">
            <mxPoint x="834.5" y="600" as="sourcePoint" />
            <mxPoint x="834.5" y="90" as="targetPoint" />
          </mxGeometry>
        </mxCell>
        <mxCell id="dv0m6-zfDkGKopQuFqEQ-14" value="" style="endArrow=none;dashed=1;html=1;" edge="1" parent="1" source="dv0m6-zfDkGKopQuFqEQ-54">
          <mxGeometry width="50" height="50" relative="1" as="geometry">
            <mxPoint x="1014.5" y="600" as="sourcePoint" />
            <mxPoint x="1014.5" y="90" as="targetPoint" />
          </mxGeometry>
        </mxCell>
        <mxCell id="dv0m6-zfDkGKopQuFqEQ-15" value="" style="endArrow=none;dashed=1;html=1;" edge="1" parent="1" source="dv0m6-zfDkGKopQuFqEQ-56">
          <mxGeometry width="50" height="50" relative="1" as="geometry">
            <mxPoint x="1174.5" y="600" as="sourcePoint" />
            <mxPoint x="1174.5" y="90" as="targetPoint" />
          </mxGeometry>
        </mxCell>
        <mxCell id="dv0m6-zfDkGKopQuFqEQ-17" value="" style="rounded=1;whiteSpace=wrap;html=1;rotation=-90;" vertex="1" parent="1">
          <mxGeometry x="62.5" y="117.5" width="50" height="15" as="geometry" />
        </mxCell>
        <mxCell id="dv0m6-zfDkGKopQuFqEQ-18" value="" style="endArrow=none;dashed=1;html=1;" edge="1" parent="1" source="dv0m6-zfDkGKopQuFqEQ-113" target="dv0m6-zfDkGKopQuFqEQ-17">
          <mxGeometry width="50" height="50" relative="1" as="geometry">
            <mxPoint x="88" y="1060" as="sourcePoint" />
            <mxPoint x="90" y="90" as="targetPoint" />
          </mxGeometry>
        </mxCell>
        <mxCell id="dv0m6-zfDkGKopQuFqEQ-19" value="" style="endArrow=classic;html=1;exitX=0.75;exitY=1;exitDx=0;exitDy=0;" edge="1" parent="1" source="dv0m6-zfDkGKopQuFqEQ-17">
          <mxGeometry width="50" height="50" relative="1" as="geometry">
            <mxPoint x="200" y="170" as="sourcePoint" />
            <mxPoint x="456" y="113" as="targetPoint" />
          </mxGeometry>
        </mxCell>
        <mxCell id="dv0m6-zfDkGKopQuFqEQ-23" value="" style="rounded=1;whiteSpace=wrap;html=1;rotation=-90;" vertex="1" parent="1">
          <mxGeometry x="440" y="117.5" width="50" height="15" as="geometry" />
        </mxCell>
        <mxCell id="dv0m6-zfDkGKopQuFqEQ-24" value="" style="endArrow=none;dashed=1;html=1;" edge="1" parent="1" source="dv0m6-zfDkGKopQuFqEQ-131" target="dv0m6-zfDkGKopQuFqEQ-23">
          <mxGeometry width="50" height="50" relative="1" as="geometry">
            <mxPoint x="465" y="1060" as="sourcePoint" />
            <mxPoint x="464.5" y="90" as="targetPoint" />
          </mxGeometry>
        </mxCell>
        <mxCell id="dv0m6-zfDkGKopQuFqEQ-25" value="1.1 Account Login" style="text;html=1;align=center;verticalAlign=middle;resizable=0;points=[];autosize=1;" vertex="1" parent="1">
          <mxGeometry x="130" y="90" width="110" height="20" as="geometry" />
        </mxCell>
        <mxCell id="dv0m6-zfDkGKopQuFqEQ-26" value="" style="endArrow=classic;html=1;exitX=0.825;exitY=0.979;exitDx=0;exitDy=0;exitPerimeter=0;entryX=0.25;entryY=1;entryDx=0;entryDy=0;" edge="1" parent="1" source="dv0m6-zfDkGKopQuFqEQ-23" target="dv0m6-zfDkGKopQuFqEQ-23">
          <mxGeometry width="50" height="50" relative="1" as="geometry">
            <mxPoint x="490" y="160" as="sourcePoint" />
            <mxPoint x="540" y="110" as="targetPoint" />
            <Array as="points">
              <mxPoint x="510" y="112" />
              <mxPoint x="510" y="138" />
            </Array>
          </mxGeometry>
        </mxCell>
        <mxCell id="dv0m6-zfDkGKopQuFqEQ-27" value="1.2 Verify Credentials" style="text;html=1;align=center;verticalAlign=middle;resizable=0;points=[];autosize=1;" vertex="1" parent="1">
          <mxGeometry x="490" y="90" width="130" height="20" as="geometry" />
        </mxCell>
        <mxCell id="dv0m6-zfDkGKopQuFqEQ-28" value="" style="endArrow=classic;html=1;entryX=0.25;entryY=1;entryDx=0;entryDy=0;" edge="1" parent="1" target="dv0m6-zfDkGKopQuFqEQ-17">
          <mxGeometry width="50" height="50" relative="1" as="geometry">
            <mxPoint x="456" y="138" as="sourcePoint" />
            <mxPoint x="230" y="190" as="targetPoint" />
          </mxGeometry>
        </mxCell>
        <mxCell id="dv0m6-zfDkGKopQuFqEQ-29" value="1.3 Successfully logged in" style="text;html=1;align=center;verticalAlign=middle;resizable=0;points=[];autosize=1;" vertex="1" parent="1">
          <mxGeometry x="110" y="117.5" width="150" height="20" as="geometry" />
        </mxCell>
        <mxCell id="dv0m6-zfDkGKopQuFqEQ-32" value="" style="endArrow=none;dashed=1;html=1;" edge="1" parent="1">
          <mxGeometry width="50" height="50" relative="1" as="geometry">
            <mxPoint x="655" y="1090" as="sourcePoint" />
            <mxPoint x="654.968152866242" y="232.5" as="targetPoint" />
          </mxGeometry>
        </mxCell>
        <mxCell id="dv0m6-zfDkGKopQuFqEQ-33" value="" style="rounded=1;whiteSpace=wrap;html=1;rotation=-90;" vertex="1" parent="1">
          <mxGeometry x="425" y="215" width="80" height="15" as="geometry" />
        </mxCell>
        <mxCell id="dv0m6-zfDkGKopQuFqEQ-35" value="" style="rounded=1;whiteSpace=wrap;html=1;rotation=-90;" vertex="1" parent="1">
          <mxGeometry x="820" y="190" width="30" height="15" as="geometry" />
        </mxCell>
        <mxCell id="dv0m6-zfDkGKopQuFqEQ-36" value="" style="endArrow=classic;html=1;exitX=0.75;exitY=0;exitDx=0;exitDy=0;" edge="1" parent="1" source="dv0m6-zfDkGKopQuFqEQ-35">
          <mxGeometry width="50" height="50" relative="1" as="geometry">
            <mxPoint x="730" y="230" as="sourcePoint" />
            <mxPoint x="473" y="190" as="targetPoint" />
          </mxGeometry>
        </mxCell>
        <mxCell id="dv0m6-zfDkGKopQuFqEQ-37" value="2.1 Submit Annual Plan" style="text;html=1;align=center;verticalAlign=middle;resizable=0;points=[];autosize=1;" vertex="1" parent="1">
          <mxGeometry x="675" y="170" width="140" height="20" as="geometry" />
        </mxCell>
        <mxCell id="dv0m6-zfDkGKopQuFqEQ-38" value="" style="endArrow=classic;html=1;exitX=0.5;exitY=1;exitDx=0;exitDy=0;" edge="1" parent="1" source="dv0m6-zfDkGKopQuFqEQ-33">
          <mxGeometry width="50" height="50" relative="1" as="geometry">
            <mxPoint x="640" y="280" as="sourcePoint" />
            <mxPoint x="1007" y="222" as="targetPoint" />
          </mxGeometry>
        </mxCell>
        <mxCell id="dv0m6-zfDkGKopQuFqEQ-40" value="" style="rounded=1;whiteSpace=wrap;html=1;rotation=-90;" vertex="1" parent="1">
          <mxGeometry x="992.5" y="222.5" width="45" height="15" as="geometry" />
        </mxCell>
        <mxCell id="dv0m6-zfDkGKopQuFqEQ-41" value="2.2 Require Approval" style="text;html=1;align=center;verticalAlign=middle;resizable=0;points=[];autosize=1;" vertex="1" parent="1">
          <mxGeometry x="500" y="205" width="130" height="20" as="geometry" />
        </mxCell>
        <mxCell id="dv0m6-zfDkGKopQuFqEQ-42" value="" style="endArrow=classic;html=1;entryX=0.221;entryY=1.056;entryDx=0;entryDy=0;exitX=0.149;exitY=0.049;exitDx=0;exitDy=0;exitPerimeter=0;entryPerimeter=0;" edge="1" parent="1" source="dv0m6-zfDkGKopQuFqEQ-40" target="dv0m6-zfDkGKopQuFqEQ-33">
          <mxGeometry width="50" height="50" relative="1" as="geometry">
            <mxPoint x="890" y="290" as="sourcePoint" />
            <mxPoint x="940" y="240" as="targetPoint" />
          </mxGeometry>
        </mxCell>
        <mxCell id="dv0m6-zfDkGKopQuFqEQ-44" value="2.3 Submit Approval and Publish Plan" style="text;html=1;align=center;verticalAlign=middle;resizable=0;points=[];autosize=1;" vertex="1" parent="1">
          <mxGeometry x="772.5" y="225" width="220" height="20" as="geometry" />
        </mxCell>
        <mxCell id="dv0m6-zfDkGKopQuFqEQ-47" value="" style="rounded=1;whiteSpace=wrap;html=1;rotation=-90;" vertex="1" parent="1">
          <mxGeometry x="240" y="310" width="80" height="15" as="geometry" />
        </mxCell>
        <mxCell id="dv0m6-zfDkGKopQuFqEQ-48" value="" style="endArrow=none;dashed=1;html=1;" edge="1" parent="1" source="dv0m6-zfDkGKopQuFqEQ-115" target="dv0m6-zfDkGKopQuFqEQ-47">
          <mxGeometry width="50" height="50" relative="1" as="geometry">
            <mxPoint x="280" y="1060" as="sourcePoint" />
            <mxPoint x="280" y="90" as="targetPoint" />
          </mxGeometry>
        </mxCell>
        <mxCell id="dv0m6-zfDkGKopQuFqEQ-49" value="" style="rounded=1;whiteSpace=wrap;html=1;rotation=-90;" vertex="1" parent="1">
          <mxGeometry x="628.13" y="296.88" width="53.75" height="15" as="geometry" />
        </mxCell>
        <mxCell id="dv0m6-zfDkGKopQuFqEQ-52" value="" style="rounded=1;whiteSpace=wrap;html=1;rotation=-90;" vertex="1" parent="1">
          <mxGeometry x="814.69" y="356.57" width="40.63" height="15" as="geometry" />
        </mxCell>
        <mxCell id="dv0m6-zfDkGKopQuFqEQ-53" value="" style="endArrow=none;dashed=1;html=1;" edge="1" parent="1" source="dv0m6-zfDkGKopQuFqEQ-90" target="dv0m6-zfDkGKopQuFqEQ-52">
          <mxGeometry width="50" height="50" relative="1" as="geometry">
            <mxPoint x="835" y="640" as="sourcePoint" />
            <mxPoint x="834.5" y="90" as="targetPoint" />
          </mxGeometry>
        </mxCell>
        <mxCell id="dv0m6-zfDkGKopQuFqEQ-57" value="" style="endArrow=classic;html=1;entryX=0.943;entryY=0.018;entryDx=0;entryDy=0;entryPerimeter=0;" edge="1" parent="1" target="dv0m6-zfDkGKopQuFqEQ-59">
          <mxGeometry width="50" height="50" relative="1" as="geometry">
            <mxPoint x="289" y="290" as="sourcePoint" />
            <mxPoint x="390" y="270" as="targetPoint" />
          </mxGeometry>
        </mxCell>
        <mxCell id="dv0m6-zfDkGKopQuFqEQ-58" value="&lt;font style=&quot;font-size: 10px&quot;&gt;3.1 Submit External Training &lt;br&gt;Request&lt;/font&gt;" style="text;html=1;align=center;verticalAlign=middle;resizable=0;points=[];autosize=1;" vertex="1" parent="1">
          <mxGeometry x="285" y="245" width="140" height="40" as="geometry" />
        </mxCell>
        <mxCell id="dv0m6-zfDkGKopQuFqEQ-59" value="" style="rounded=1;whiteSpace=wrap;html=1;rotation=-90;" vertex="1" parent="1">
          <mxGeometry x="361.25" y="373.75" width="207.5" height="15" as="geometry" />
        </mxCell>
        <mxCell id="dv0m6-zfDkGKopQuFqEQ-60" value="" style="endArrow=classic;html=1;exitX=0.939;exitY=0.99;exitDx=0;exitDy=0;exitPerimeter=0;entryX=0.765;entryY=0.069;entryDx=0;entryDy=0;entryPerimeter=0;" edge="1" parent="1" source="dv0m6-zfDkGKopQuFqEQ-59" target="dv0m6-zfDkGKopQuFqEQ-49">
          <mxGeometry width="50" height="50" relative="1" as="geometry">
            <mxPoint x="510" y="340" as="sourcePoint" />
            <mxPoint x="645" y="290" as="targetPoint" />
          </mxGeometry>
        </mxCell>
        <mxCell id="dv0m6-zfDkGKopQuFqEQ-61" value="&lt;font style=&quot;font-size: 10px&quot;&gt;3.2 Require Approval&amp;nbsp;&lt;/font&gt;" style="text;html=1;align=center;verticalAlign=middle;resizable=0;points=[];autosize=1;" vertex="1" parent="1">
          <mxGeometry x="490" y="265" width="110" height="20" as="geometry" />
        </mxCell>
        <mxCell id="dv0m6-zfDkGKopQuFqEQ-62" value="" style="endArrow=classic;html=1;entryX=0.797;entryY=1.123;entryDx=0;entryDy=0;exitX=0.97;exitY=0.989;exitDx=0;exitDy=0;exitPerimeter=0;entryPerimeter=0;" edge="1" parent="1" source="dv0m6-zfDkGKopQuFqEQ-63" target="dv0m6-zfDkGKopQuFqEQ-59">
          <mxGeometry width="50" height="50" relative="1" as="geometry">
            <mxPoint x="540" y="380" as="sourcePoint" />
            <mxPoint x="590" y="330" as="targetPoint" />
          </mxGeometry>
        </mxCell>
        <mxCell id="dv0m6-zfDkGKopQuFqEQ-63" value="&lt;font style=&quot;font-size: 10px&quot;&gt;3.3 Submit Approval&lt;/font&gt;" style="text;html=1;align=center;verticalAlign=middle;resizable=0;points=[];autosize=1;" vertex="1" parent="1">
          <mxGeometry x="540" y="300" width="110" height="20" as="geometry" />
        </mxCell>
        <mxCell id="dv0m6-zfDkGKopQuFqEQ-64" value="" style="endArrow=classic;html=1;exitX=0.018;exitY=0.875;exitDx=0;exitDy=0;exitPerimeter=0;" edge="1" parent="1" source="dv0m6-zfDkGKopQuFqEQ-65">
          <mxGeometry width="50" height="50" relative="1" as="geometry">
            <mxPoint x="550" y="400" as="sourcePoint" />
            <mxPoint x="825" y="350" as="targetPoint" />
          </mxGeometry>
        </mxCell>
        <mxCell id="dv0m6-zfDkGKopQuFqEQ-65" value="&lt;font style=&quot;font-size: 10px&quot;&gt;3.4 Require Approval&lt;/font&gt;" style="text;html=1;align=center;verticalAlign=middle;resizable=0;points=[];autosize=1;" vertex="1" parent="1">
          <mxGeometry x="470" y="332.5" width="110" height="20" as="geometry" />
        </mxCell>
        <mxCell id="dv0m6-zfDkGKopQuFqEQ-66" value="" style="endArrow=classic;html=1;exitX=0.25;exitY=0;exitDx=0;exitDy=0;" edge="1" parent="1" source="dv0m6-zfDkGKopQuFqEQ-52">
          <mxGeometry width="50" height="50" relative="1" as="geometry">
            <mxPoint x="740" y="420" as="sourcePoint" />
            <mxPoint x="476" y="374" as="targetPoint" />
          </mxGeometry>
        </mxCell>
        <mxCell id="dv0m6-zfDkGKopQuFqEQ-67" value="&lt;font style=&quot;font-size: 10px&quot;&gt;3.5 Submit Approval&lt;/font&gt;" style="text;html=1;align=center;verticalAlign=middle;resizable=0;points=[];autosize=1;" vertex="1" parent="1">
          <mxGeometry x="720" y="354.07" width="110" height="20" as="geometry" />
        </mxCell>
        <mxCell id="dv0m6-zfDkGKopQuFqEQ-54" value="" style="rounded=1;whiteSpace=wrap;html=1;rotation=-90;" vertex="1" parent="1">
          <mxGeometry x="992.5" y="402.5" width="45" height="15" as="geometry" />
        </mxCell>
        <mxCell id="dv0m6-zfDkGKopQuFqEQ-68" value="" style="endArrow=none;dashed=1;html=1;" edge="1" parent="1" target="dv0m6-zfDkGKopQuFqEQ-54">
          <mxGeometry width="50" height="50" relative="1" as="geometry">
            <mxPoint x="1015" y="1090" as="sourcePoint" />
            <mxPoint x="1014.5" y="90" as="targetPoint" />
          </mxGeometry>
        </mxCell>
        <mxCell id="dv0m6-zfDkGKopQuFqEQ-69" value="" style="endArrow=classic;html=1;exitX=0.412;exitY=1.193;exitDx=0;exitDy=0;entryX=0.75;entryY=0;entryDx=0;entryDy=0;exitPerimeter=0;" edge="1" parent="1" source="dv0m6-zfDkGKopQuFqEQ-59" target="dv0m6-zfDkGKopQuFqEQ-54">
          <mxGeometry width="50" height="50" relative="1" as="geometry">
            <mxPoint x="560" y="450" as="sourcePoint" />
            <mxPoint x="610" y="400" as="targetPoint" />
          </mxGeometry>
        </mxCell>
        <mxCell id="dv0m6-zfDkGKopQuFqEQ-70" value="" style="endArrow=classic;html=1;entryX=0.268;entryY=1.205;entryDx=0;entryDy=0;entryPerimeter=0;exitX=0.082;exitY=0.167;exitDx=0;exitDy=0;exitPerimeter=0;" edge="1" parent="1" source="dv0m6-zfDkGKopQuFqEQ-54" target="dv0m6-zfDkGKopQuFqEQ-59">
          <mxGeometry width="50" height="50" relative="1" as="geometry">
            <mxPoint x="920" y="500" as="sourcePoint" />
            <mxPoint x="970" y="450" as="targetPoint" />
          </mxGeometry>
        </mxCell>
        <mxCell id="dv0m6-zfDkGKopQuFqEQ-71" value="&lt;font style=&quot;font-size: 10px&quot;&gt;3.6 Require Approval&lt;/font&gt;" style="text;html=1;align=center;verticalAlign=middle;resizable=0;points=[];autosize=1;" vertex="1" parent="1">
          <mxGeometry x="480" y="382.5" width="110" height="20" as="geometry" />
        </mxCell>
        <mxCell id="dv0m6-zfDkGKopQuFqEQ-72" value="&lt;font style=&quot;font-size: 10px&quot;&gt;3.7 Submit Approval&lt;/font&gt;" style="text;html=1;align=center;verticalAlign=middle;resizable=0;points=[];autosize=1;" vertex="1" parent="1">
          <mxGeometry x="900" y="410" width="110" height="20" as="geometry" />
        </mxCell>
        <mxCell id="dv0m6-zfDkGKopQuFqEQ-56" value="" style="rounded=1;whiteSpace=wrap;html=1;rotation=-90;" vertex="1" parent="1">
          <mxGeometry x="1147.5" y="457.5" width="55" height="15" as="geometry" />
        </mxCell>
        <mxCell id="dv0m6-zfDkGKopQuFqEQ-73" value="" style="endArrow=none;dashed=1;html=1;" edge="1" parent="1" target="dv0m6-zfDkGKopQuFqEQ-56">
          <mxGeometry width="50" height="50" relative="1" as="geometry">
            <mxPoint x="1175" y="1090" as="sourcePoint" />
            <mxPoint x="1174.5" y="90" as="targetPoint" />
          </mxGeometry>
        </mxCell>
        <mxCell id="dv0m6-zfDkGKopQuFqEQ-74" value="" style="endArrow=classic;html=1;exitX=0.166;exitY=0.938;exitDx=0;exitDy=0;exitPerimeter=0;entryX=0.75;entryY=0;entryDx=0;entryDy=0;" edge="1" parent="1" source="dv0m6-zfDkGKopQuFqEQ-59" target="dv0m6-zfDkGKopQuFqEQ-56">
          <mxGeometry width="50" height="50" relative="1" as="geometry">
            <mxPoint x="590" y="490" as="sourcePoint" />
            <mxPoint x="640" y="440" as="targetPoint" />
          </mxGeometry>
        </mxCell>
        <mxCell id="dv0m6-zfDkGKopQuFqEQ-75" value="" style="endArrow=classic;html=1;exitX=0.25;exitY=0;exitDx=0;exitDy=0;entryX=0.03;entryY=0.833;entryDx=0;entryDy=0;entryPerimeter=0;" edge="1" parent="1" source="dv0m6-zfDkGKopQuFqEQ-56" target="dv0m6-zfDkGKopQuFqEQ-59">
          <mxGeometry width="50" height="50" relative="1" as="geometry">
            <mxPoint x="1020" y="520" as="sourcePoint" />
            <mxPoint x="1070" y="470" as="targetPoint" />
          </mxGeometry>
        </mxCell>
        <mxCell id="dv0m6-zfDkGKopQuFqEQ-76" value="&lt;font style=&quot;font-size: 10px&quot;&gt;3.8 Require Approval&lt;/font&gt;" style="text;html=1;align=center;verticalAlign=middle;resizable=0;points=[];autosize=1;" vertex="1" parent="1">
          <mxGeometry x="470" y="430" width="110" height="20" as="geometry" />
        </mxCell>
        <mxCell id="dv0m6-zfDkGKopQuFqEQ-77" value="&lt;font style=&quot;font-size: 10px&quot;&gt;3.9 Submit Approval&lt;/font&gt;" style="text;html=1;align=center;verticalAlign=middle;resizable=0;points=[];autosize=1;" vertex="1" parent="1">
          <mxGeometry x="1050" y="460" width="110" height="20" as="geometry" />
        </mxCell>
        <mxCell id="dv0m6-zfDkGKopQuFqEQ-78" value="" style="rounded=1;whiteSpace=wrap;html=1;rotation=-90;" vertex="1" parent="1">
          <mxGeometry x="240" y="543" width="80" height="15" as="geometry" />
        </mxCell>
        <mxCell id="dv0m6-zfDkGKopQuFqEQ-83" value="" style="rounded=1;whiteSpace=wrap;html=1;rotation=-90;" vertex="1" parent="1">
          <mxGeometry x="405.63" y="562.38" width="118.75" height="15" as="geometry" />
        </mxCell>
        <mxCell id="dv0m6-zfDkGKopQuFqEQ-84" value="" style="endArrow=classic;html=1;exitX=0.881;exitY=1.167;exitDx=0;exitDy=0;exitPerimeter=0;entryX=0.907;entryY=0.02;entryDx=0;entryDy=0;entryPerimeter=0;" edge="1" parent="1" source="dv0m6-zfDkGKopQuFqEQ-78" target="dv0m6-zfDkGKopQuFqEQ-83">
          <mxGeometry width="50" height="50" relative="1" as="geometry">
            <mxPoint x="340" y="560" as="sourcePoint" />
            <mxPoint x="390" y="510" as="targetPoint" />
          </mxGeometry>
        </mxCell>
        <mxCell id="dv0m6-zfDkGKopQuFqEQ-85" value="&lt;font style=&quot;font-size: 10px&quot;&gt;4.1 Submit Internal Training &lt;br&gt;Request&lt;/font&gt;" style="text;html=1;align=center;verticalAlign=middle;resizable=0;points=[];autosize=1;" vertex="1" parent="1">
          <mxGeometry x="290" y="480" width="140" height="40" as="geometry" />
        </mxCell>
        <mxCell id="dv0m6-zfDkGKopQuFqEQ-86" value="" style="rounded=1;whiteSpace=wrap;html=1;rotation=-90;" vertex="1" parent="1">
          <mxGeometry x="627.5" y="530.5" width="55" height="15" as="geometry" />
        </mxCell>
        <mxCell id="dv0m6-zfDkGKopQuFqEQ-87" value="" style="endArrow=classic;html=1;" edge="1" parent="1">
          <mxGeometry width="50" height="50" relative="1" as="geometry">
            <mxPoint x="474" y="520" as="sourcePoint" />
            <mxPoint x="646" y="520" as="targetPoint" />
          </mxGeometry>
        </mxCell>
        <mxCell id="dv0m6-zfDkGKopQuFqEQ-88" value="" style="endArrow=classic;html=1;entryX=0.648;entryY=1.011;entryDx=0;entryDy=0;exitX=0.25;exitY=0;exitDx=0;exitDy=0;entryPerimeter=0;" edge="1" parent="1" source="dv0m6-zfDkGKopQuFqEQ-86" target="dv0m6-zfDkGKopQuFqEQ-83">
          <mxGeometry width="50" height="50" relative="1" as="geometry">
            <mxPoint x="550" y="600" as="sourcePoint" />
            <mxPoint x="600" y="550" as="targetPoint" />
          </mxGeometry>
        </mxCell>
        <mxCell id="dv0m6-zfDkGKopQuFqEQ-91" value="" style="endArrow=classic;html=1;entryX=0.75;entryY=0;entryDx=0;entryDy=0;exitX=0.414;exitY=1;exitDx=0;exitDy=0;exitPerimeter=0;" edge="1" parent="1" source="dv0m6-zfDkGKopQuFqEQ-83" target="dv0m6-zfDkGKopQuFqEQ-90">
          <mxGeometry width="50" height="50" relative="1" as="geometry">
            <mxPoint x="480" y="580" as="sourcePoint" />
            <mxPoint x="620" y="580" as="targetPoint" />
          </mxGeometry>
        </mxCell>
        <mxCell id="dv0m6-zfDkGKopQuFqEQ-90" value="" style="rounded=1;whiteSpace=wrap;html=1;rotation=-90;" vertex="1" parent="1">
          <mxGeometry x="807.5" y="586.75" width="55" height="15" as="geometry" />
        </mxCell>
        <mxCell id="dv0m6-zfDkGKopQuFqEQ-92" value="" style="endArrow=none;dashed=1;html=1;" edge="1" parent="1" source="dv0m6-zfDkGKopQuFqEQ-100" target="dv0m6-zfDkGKopQuFqEQ-90">
          <mxGeometry width="50" height="50" relative="1" as="geometry">
            <mxPoint x="834" y="1050" as="sourcePoint" />
            <mxPoint x="835.0046318812742" y="384.38499999999976" as="targetPoint" />
          </mxGeometry>
        </mxCell>
        <mxCell id="dv0m6-zfDkGKopQuFqEQ-93" value="" style="endArrow=classic;html=1;entryX=0.162;entryY=1.122;entryDx=0;entryDy=0;entryPerimeter=0;" edge="1" parent="1" target="dv0m6-zfDkGKopQuFqEQ-83">
          <mxGeometry width="50" height="50" relative="1" as="geometry">
            <mxPoint x="826" y="610" as="sourcePoint" />
            <mxPoint x="770" y="600" as="targetPoint" />
          </mxGeometry>
        </mxCell>
        <mxCell id="dv0m6-zfDkGKopQuFqEQ-94" value="&lt;font style=&quot;font-size: 10px&quot;&gt;4.2 Require Approval&lt;/font&gt;" style="text;html=1;align=center;verticalAlign=middle;resizable=0;points=[];autosize=1;" vertex="1" parent="1">
          <mxGeometry x="470" y="500" width="110" height="20" as="geometry" />
        </mxCell>
        <mxCell id="dv0m6-zfDkGKopQuFqEQ-95" value="&lt;font style=&quot;font-size: 10px&quot;&gt;4.3 Submit Approval&lt;/font&gt;" style="text;html=1;align=center;verticalAlign=middle;resizable=0;points=[];autosize=1;" vertex="1" parent="1">
          <mxGeometry x="540" y="530.5" width="110" height="20" as="geometry" />
        </mxCell>
        <mxCell id="dv0m6-zfDkGKopQuFqEQ-96" value="&lt;font style=&quot;font-size: 10px&quot;&gt;4.4 Require Approval&lt;/font&gt;" style="text;html=1;align=center;verticalAlign=middle;resizable=0;points=[];autosize=1;" vertex="1" parent="1">
          <mxGeometry x="480" y="559.88" width="110" height="20" as="geometry" />
        </mxCell>
        <mxCell id="dv0m6-zfDkGKopQuFqEQ-97" value="&lt;font style=&quot;font-size: 10px&quot;&gt;4.5 Submit Approval&lt;/font&gt;" style="text;html=1;align=center;verticalAlign=middle;resizable=0;points=[];autosize=1;" vertex="1" parent="1">
          <mxGeometry x="720" y="590" width="110" height="20" as="geometry" />
        </mxCell>
        <mxCell id="dv0m6-zfDkGKopQuFqEQ-98" value="" style="rounded=1;whiteSpace=wrap;html=1;rotation=-90;" vertex="1" parent="1">
          <mxGeometry x="240" y="680" width="80" height="15" as="geometry" />
        </mxCell>
        <mxCell id="dv0m6-zfDkGKopQuFqEQ-99" value="" style="rounded=1;whiteSpace=wrap;html=1;rotation=-90;" vertex="1" parent="1">
          <mxGeometry x="50" y="680" width="80" height="15" as="geometry" />
        </mxCell>
        <mxCell id="dv0m6-zfDkGKopQuFqEQ-100" value="" style="rounded=1;whiteSpace=wrap;html=1;rotation=-90;" vertex="1" parent="1">
          <mxGeometry x="795" y="680" width="80" height="15" as="geometry" />
        </mxCell>
        <mxCell id="dv0m6-zfDkGKopQuFqEQ-101" value="" style="endArrow=none;dashed=1;html=1;" edge="1" parent="1" source="dv0m6-zfDkGKopQuFqEQ-118" target="dv0m6-zfDkGKopQuFqEQ-100">
          <mxGeometry width="50" height="50" relative="1" as="geometry">
            <mxPoint x="834" y="1050" as="sourcePoint" />
            <mxPoint x="834.9396599012616" y="621.75" as="targetPoint" />
          </mxGeometry>
        </mxCell>
        <mxCell id="dv0m6-zfDkGKopQuFqEQ-102" value="" style="endArrow=classic;html=1;exitX=0.75;exitY=1;exitDx=0;exitDy=0;entryX=0.75;entryY=0;entryDx=0;entryDy=0;" edge="1" parent="1" source="dv0m6-zfDkGKopQuFqEQ-99" target="dv0m6-zfDkGKopQuFqEQ-98">
          <mxGeometry width="50" height="50" relative="1" as="geometry">
            <mxPoint x="150" y="690" as="sourcePoint" />
            <mxPoint x="200" y="640" as="targetPoint" />
          </mxGeometry>
        </mxCell>
        <mxCell id="dv0m6-zfDkGKopQuFqEQ-103" value="" style="endArrow=classic;html=1;exitX=0.75;exitY=1;exitDx=0;exitDy=0;entryX=0.75;entryY=0;entryDx=0;entryDy=0;" edge="1" parent="1" source="dv0m6-zfDkGKopQuFqEQ-98" target="dv0m6-zfDkGKopQuFqEQ-100">
          <mxGeometry width="50" height="50" relative="1" as="geometry">
            <mxPoint x="350" y="690" as="sourcePoint" />
            <mxPoint x="400" y="640" as="targetPoint" />
          </mxGeometry>
        </mxCell>
        <mxCell id="dv0m6-zfDkGKopQuFqEQ-104" value="" style="endArrow=classic;html=1;entryX=0.25;entryY=1;entryDx=0;entryDy=0;exitX=0.25;exitY=0;exitDx=0;exitDy=0;" edge="1" parent="1" source="dv0m6-zfDkGKopQuFqEQ-100" target="dv0m6-zfDkGKopQuFqEQ-98">
          <mxGeometry width="50" height="50" relative="1" as="geometry">
            <mxPoint x="530" y="790" as="sourcePoint" />
            <mxPoint x="580" y="740" as="targetPoint" />
          </mxGeometry>
        </mxCell>
        <mxCell id="dv0m6-zfDkGKopQuFqEQ-105" value="" style="endArrow=classic;html=1;entryX=0.25;entryY=1;entryDx=0;entryDy=0;exitX=0.25;exitY=0;exitDx=0;exitDy=0;" edge="1" parent="1" source="dv0m6-zfDkGKopQuFqEQ-98" target="dv0m6-zfDkGKopQuFqEQ-99">
          <mxGeometry width="50" height="50" relative="1" as="geometry">
            <mxPoint x="150" y="790" as="sourcePoint" />
            <mxPoint x="200" y="740" as="targetPoint" />
          </mxGeometry>
        </mxCell>
        <mxCell id="dv0m6-zfDkGKopQuFqEQ-107" value="&lt;font style=&quot;font-size: 10px&quot;&gt;5.1 Fill attendance hours&lt;br&gt;for Training event&lt;br&gt;&lt;/font&gt;" style="text;html=1;align=center;verticalAlign=middle;resizable=0;points=[];autosize=1;" vertex="1" parent="1">
          <mxGeometry x="105" y="630" width="130" height="40" as="geometry" />
        </mxCell>
        <mxCell id="dv0m6-zfDkGKopQuFqEQ-108" value="&lt;font style=&quot;font-size: 10px&quot;&gt;5.2 Require Verification&lt;br&gt;&lt;/font&gt;" style="text;html=1;align=center;verticalAlign=middle;resizable=0;points=[];autosize=1;" vertex="1" parent="1">
          <mxGeometry x="290" y="650" width="120" height="20" as="geometry" />
        </mxCell>
        <mxCell id="dv0m6-zfDkGKopQuFqEQ-109" value="&lt;font style=&quot;font-size: 10px&quot;&gt;5.3 Submit Verification&lt;br&gt;&lt;/font&gt;" style="text;html=1;align=center;verticalAlign=middle;resizable=0;points=[];autosize=1;" vertex="1" parent="1">
          <mxGeometry x="710" y="690" width="120" height="20" as="geometry" />
        </mxCell>
        <mxCell id="dv0m6-zfDkGKopQuFqEQ-111" value="&lt;font style=&quot;font-size: 10px&quot;&gt;5.3 Notify verified hours&lt;br&gt;&lt;/font&gt;" style="text;html=1;align=center;verticalAlign=middle;resizable=0;points=[];autosize=1;" vertex="1" parent="1">
          <mxGeometry x="160" y="690" width="120" height="20" as="geometry" />
        </mxCell>
        <mxCell id="dv0m6-zfDkGKopQuFqEQ-113" value="" style="rounded=1;whiteSpace=wrap;html=1;rotation=-90;" vertex="1" parent="1">
          <mxGeometry x="47.5" y="790" width="80" height="15" as="geometry" />
        </mxCell>
        <mxCell id="dv0m6-zfDkGKopQuFqEQ-114" value="" style="endArrow=none;dashed=1;html=1;" edge="1" parent="1" target="dv0m6-zfDkGKopQuFqEQ-113">
          <mxGeometry width="50" height="50" relative="1" as="geometry">
            <mxPoint x="88" y="1100" as="sourcePoint" />
            <mxPoint x="87.5133689839571" y="150" as="targetPoint" />
          </mxGeometry>
        </mxCell>
        <mxCell id="dv0m6-zfDkGKopQuFqEQ-115" value="" style="rounded=1;whiteSpace=wrap;html=1;rotation=-90;" vertex="1" parent="1">
          <mxGeometry x="210" y="820" width="140" height="15" as="geometry" />
        </mxCell>
        <mxCell id="dv0m6-zfDkGKopQuFqEQ-116" value="" style="endArrow=none;dashed=1;html=1;" edge="1" parent="1" source="dv0m6-zfDkGKopQuFqEQ-128" target="dv0m6-zfDkGKopQuFqEQ-115">
          <mxGeometry width="50" height="50" relative="1" as="geometry">
            <mxPoint x="280" y="1060" as="sourcePoint" />
            <mxPoint x="280" y="357.5" as="targetPoint" />
          </mxGeometry>
        </mxCell>
        <mxCell id="dv0m6-zfDkGKopQuFqEQ-118" value="" style="rounded=1;whiteSpace=wrap;html=1;rotation=-90;" vertex="1" parent="1">
          <mxGeometry x="795.01" y="850" width="80" height="15" as="geometry" />
        </mxCell>
        <mxCell id="dv0m6-zfDkGKopQuFqEQ-119" value="" style="endArrow=none;dashed=1;html=1;" edge="1" parent="1" source="dv0m6-zfDkGKopQuFqEQ-136" target="dv0m6-zfDkGKopQuFqEQ-118">
          <mxGeometry width="50" height="50" relative="1" as="geometry">
            <mxPoint x="835" y="1080" as="sourcePoint" />
            <mxPoint x="834.8896551724138" y="727.4999999999998" as="targetPoint" />
          </mxGeometry>
        </mxCell>
        <mxCell id="dv0m6-zfDkGKopQuFqEQ-120" value="" style="endArrow=classic;html=1;exitX=0.857;exitY=0;exitDx=0;exitDy=0;entryX=0.75;entryY=1;entryDx=0;entryDy=0;exitPerimeter=0;" edge="1" parent="1" source="dv0m6-zfDkGKopQuFqEQ-115" target="dv0m6-zfDkGKopQuFqEQ-113">
          <mxGeometry width="50" height="50" relative="1" as="geometry">
            <mxPoint x="180" y="830" as="sourcePoint" />
            <mxPoint x="200" y="730" as="targetPoint" />
          </mxGeometry>
        </mxCell>
        <mxCell id="dv0m6-zfDkGKopQuFqEQ-121" value="" style="endArrow=classic;html=1;exitX=0.25;exitY=1;exitDx=0;exitDy=0;" edge="1" parent="1" source="dv0m6-zfDkGKopQuFqEQ-113">
          <mxGeometry width="50" height="50" relative="1" as="geometry">
            <mxPoint x="145" y="830" as="sourcePoint" />
            <mxPoint x="272" y="818" as="targetPoint" />
          </mxGeometry>
        </mxCell>
        <mxCell id="dv0m6-zfDkGKopQuFqEQ-122" value="&lt;font style=&quot;font-size: 10px&quot;&gt;6.1 Send link to evaluation form&lt;br&gt;&lt;/font&gt;" style="text;html=1;align=center;verticalAlign=middle;resizable=0;points=[];autosize=1;" vertex="1" parent="1">
          <mxGeometry x="100" y="760" width="160" height="20" as="geometry" />
        </mxCell>
        <mxCell id="dv0m6-zfDkGKopQuFqEQ-123" value="&lt;font style=&quot;font-size: 10px&quot;&gt;6.2 Submit filled evaluation form&lt;br&gt;&lt;/font&gt;" style="text;html=1;align=center;verticalAlign=middle;resizable=0;points=[];autosize=1;" vertex="1" parent="1">
          <mxGeometry x="100" y="800" width="160" height="20" as="geometry" />
        </mxCell>
        <mxCell id="dv0m6-zfDkGKopQuFqEQ-124" value="" style="endArrow=classic;html=1;exitX=0.715;exitY=-0.034;exitDx=0;exitDy=0;exitPerimeter=0;" edge="1" parent="1" source="dv0m6-zfDkGKopQuFqEQ-118">
          <mxGeometry width="50" height="50" relative="1" as="geometry">
            <mxPoint x="750" y="800" as="sourcePoint" />
            <mxPoint x="290" y="838" as="targetPoint" />
          </mxGeometry>
        </mxCell>
        <mxCell id="dv0m6-zfDkGKopQuFqEQ-125" value="" style="endArrow=classic;html=1;exitX=0.125;exitY=1.167;exitDx=0;exitDy=0;exitPerimeter=0;entryX=0.217;entryY=-0.102;entryDx=0;entryDy=0;entryPerimeter=0;" edge="1" parent="1" source="dv0m6-zfDkGKopQuFqEQ-115" target="dv0m6-zfDkGKopQuFqEQ-118">
          <mxGeometry width="50" height="50" relative="1" as="geometry">
            <mxPoint x="360" y="910" as="sourcePoint" />
            <mxPoint x="820" y="880" as="targetPoint" />
          </mxGeometry>
        </mxCell>
        <mxCell id="dv0m6-zfDkGKopQuFqEQ-126" value="&lt;font style=&quot;font-size: 10px&quot;&gt;6.3 Request Evaluation Results&lt;br&gt;&lt;/font&gt;" style="text;html=1;align=center;verticalAlign=middle;resizable=0;points=[];autosize=1;" vertex="1" parent="1">
          <mxGeometry x="670" y="820" width="160" height="20" as="geometry" />
        </mxCell>
        <mxCell id="dv0m6-zfDkGKopQuFqEQ-127" value="&lt;font style=&quot;font-size: 10px&quot;&gt;7.0 Generate Training &lt;br&gt;Effectiveness Report Template&lt;br&gt;&lt;/font&gt;" style="text;html=1;align=center;verticalAlign=middle;resizable=0;points=[];autosize=1;" vertex="1" parent="1">
          <mxGeometry x="110" y="890" width="150" height="40" as="geometry" />
        </mxCell>
        <mxCell id="dv0m6-zfDkGKopQuFqEQ-128" value="" style="rounded=1;whiteSpace=wrap;html=1;rotation=-90;" vertex="1" parent="1">
          <mxGeometry x="205" y="985" width="150" height="15" as="geometry" />
        </mxCell>
        <mxCell id="dv0m6-zfDkGKopQuFqEQ-129" value="" style="endArrow=none;dashed=1;html=1;exitX=0;exitY=0.5;exitDx=0;exitDy=0;" edge="1" parent="1" source="dv0m6-zfDkGKopQuFqEQ-128">
          <mxGeometry width="50" height="50" relative="1" as="geometry">
            <mxPoint x="280" y="1070" as="sourcePoint" />
            <mxPoint x="280" y="1090" as="targetPoint" />
          </mxGeometry>
        </mxCell>
        <mxCell id="dv0m6-zfDkGKopQuFqEQ-130" value="" style="endArrow=classic;html=1;exitX=0.917;exitY=-0.122;exitDx=0;exitDy=0;exitPerimeter=0;entryX=0.734;entryY=0.033;entryDx=0;entryDy=0;entryPerimeter=0;" edge="1" parent="1" source="dv0m6-zfDkGKopQuFqEQ-128" target="dv0m6-zfDkGKopQuFqEQ-128">
          <mxGeometry width="50" height="50" relative="1" as="geometry">
            <mxPoint x="220" y="970" as="sourcePoint" />
            <mxPoint x="200" y="926" as="targetPoint" />
            <Array as="points">
              <mxPoint x="230" y="930" />
              <mxPoint x="230" y="930" />
              <mxPoint x="230" y="958" />
            </Array>
          </mxGeometry>
        </mxCell>
        <mxCell id="dv0m6-zfDkGKopQuFqEQ-131" value="" style="rounded=1;whiteSpace=wrap;html=1;rotation=-90;" vertex="1" parent="1">
          <mxGeometry x="435" y="975" width="50" height="15" as="geometry" />
        </mxCell>
        <mxCell id="dv0m6-zfDkGKopQuFqEQ-132" value="" style="endArrow=none;dashed=1;html=1;entryX=0;entryY=0.5;entryDx=0;entryDy=0;" edge="1" parent="1" target="dv0m6-zfDkGKopQuFqEQ-131">
          <mxGeometry width="50" height="50" relative="1" as="geometry">
            <mxPoint x="460" y="1090" as="sourcePoint" />
            <mxPoint x="465" y="150" as="targetPoint" />
            <Array as="points" />
          </mxGeometry>
        </mxCell>
        <mxCell id="dv0m6-zfDkGKopQuFqEQ-133" value="" style="endArrow=classic;html=1;entryX=0.5;entryY=1;entryDx=0;entryDy=0;exitX=0.297;exitY=0.033;exitDx=0;exitDy=0;exitPerimeter=0;" edge="1" parent="1" source="dv0m6-zfDkGKopQuFqEQ-131" target="dv0m6-zfDkGKopQuFqEQ-128">
          <mxGeometry width="50" height="50" relative="1" as="geometry">
            <mxPoint x="370" y="1060" as="sourcePoint" />
            <mxPoint x="420" y="1010" as="targetPoint" />
          </mxGeometry>
        </mxCell>
        <mxCell id="dv0m6-zfDkGKopQuFqEQ-134" value="&lt;font style=&quot;font-size: 10px&quot;&gt;7.1 Assess Competency Rating&lt;br&gt;&lt;/font&gt;" style="text;html=1;align=center;verticalAlign=middle;resizable=0;points=[];autosize=1;" vertex="1" parent="1">
          <mxGeometry x="300" y="965" width="150" height="20" as="geometry" />
        </mxCell>
        <mxCell id="dv0m6-zfDkGKopQuFqEQ-136" value="" style="rounded=1;whiteSpace=wrap;html=1;rotation=-90;" vertex="1" parent="1">
          <mxGeometry x="810.01" y="1030" width="50" height="15" as="geometry" />
        </mxCell>
        <mxCell id="dv0m6-zfDkGKopQuFqEQ-137" value="" style="endArrow=none;dashed=1;html=1;" edge="1" parent="1" target="dv0m6-zfDkGKopQuFqEQ-136">
          <mxGeometry width="50" height="50" relative="1" as="geometry">
            <mxPoint x="835" y="1090" as="sourcePoint" />
            <mxPoint x="835.0082022471911" y="897.5" as="targetPoint" />
          </mxGeometry>
        </mxCell>
        <mxCell id="dv0m6-zfDkGKopQuFqEQ-138" value="" style="endArrow=classic;html=1;entryX=0.25;entryY=1;entryDx=0;entryDy=0;exitX=0.642;exitY=-0.034;exitDx=0;exitDy=0;exitPerimeter=0;" edge="1" parent="1" source="dv0m6-zfDkGKopQuFqEQ-136" target="dv0m6-zfDkGKopQuFqEQ-128">
          <mxGeometry width="50" height="50" relative="1" as="geometry">
            <mxPoint x="700" y="1060" as="sourcePoint" />
            <mxPoint x="750" y="1010" as="targetPoint" />
          </mxGeometry>
        </mxCell>
        <mxCell id="dv0m6-zfDkGKopQuFqEQ-139" value="&lt;font style=&quot;font-size: 10px&quot;&gt;7.2 Verify Requirement for &lt;br&gt;Training Repetition&lt;br&gt;&lt;/font&gt;" style="text;html=1;align=center;verticalAlign=middle;resizable=0;points=[];autosize=1;" vertex="1" parent="1">
          <mxGeometry x="690" y="990" width="130" height="40" as="geometry" />
        </mxCell>
      </root>
    </mxGraphModel>
  </diagram>
</mxfile>
